# AST/ASF file generated using VICON BodyLanguage
# -----------------------------------------------
:version 1.10
:name VICON
:units
  mass 1.0
  length 0.45
  angle deg
:documentation
   .ast/.asf automatically generated from VICON data using
   VICON BodyBuilder and BodyLanguage model FoxedUp or BRILLIANT.MOD
:root
   order TX TY TZ RX RY RZ
   axis XYZ
   position 0 0 0  
   orientation 0 0 0 
:bonedata
  begin
     id 1 
     name lhipjoint
     direction 0.612567 -0.751349 0.245431 
     length 2.42285 
     axis 0 0 0  XYZ
  end
  begin
     id 2 
     name lfemur
     direction 0.34202 -0.939693 0  
     length 7.11304  
     axis 0 0 20  XYZ
    dof rx ry rz
    limits (-160.0 20.0)
           (-70.0 70.0)
           (-60.0 70.0)
  end
  begin
     id 3 
     name ltibia
     direction 0.34202 -0.939693 0   
     length 7.84529   
     axis 0 0 20   XYZ
    dof rx
    limits (-10.0 170.0)
  end
  begin
     id 4 
     name lfoot
     direction 0.0779239 -0.214094 0.9737   
     length 1.97176   
     axis -90 7.62852e-016 20   XYZ
    dof rx rz
    limits (-45.0 90.0)
           (-70.0 20.0)
  end
  begin
     id 5 
     name ltoes
     direction 1.53565e-011 -4.21709e-011 1   
     length 0.993197   
     axis -90 7.62852e-016 20   XYZ
    dof rx
    limits (-90.0 20.0)
  end
  begin
     id 6 
     name rhipjoint
     direction -0.665722 -0.709315 0.231701   
     length 2.56642  
     axis 0 0 0  XYZ 
  end
  begin
     id 7 
     name rfemur
     direction -0.34202 -0.939693 0   
     length 7.32108   
     axis 0 0 -20   XYZ
    dof rx ry rz
    limits (-160.0 20.0)
           (-70.0 70.0)
           (-70.0 60.0)
  end
  begin
     id 8 
     name rtibia
     direction -0.34202 -0.939693 0   
     length 7.81254   
     axis 0 0 -20   XYZ
    dof rx
    limits (-10.0 170.0)
 end
 begin
     id 9 
     name rfoot
     direction -0.0832806 -0.228812 0.969902   
     length 2.08278  
     axis -90 -7.62852e-016 -20   XYZ
    dof rx rz
    limits (-45.0 90.0)
           (-20.0 70.0)
  end
  begin
     id 10 
     name rtoes
     direction -1.53589e-011 -4.22086e-011 1   
     length 1.04609   
     axis -90 -7.62852e-016 -20   XYZ
    dof rx
    limits (-90.0 20.0)
  end
  begin
     id 11 
     name lowerback
     direction -0.00506013 0.988403 -0.151766   
     length 2.01978   
     axis 0 0 0   XYZ
    dof rx ry rz
    limits (-20.0 45.0)
           (-30.0 30.0)
           (-30.0 30.0)
  end
  begin
     id 12 
     name upperback
     direction -0.00836389 0.99968 0.0238859   
     length 2.01276   
     axis 0 0 0   XYZ
    dof rx ry rz
    limits (-20.0 45.0)
           (-30.0 30.0)
           (-30.0 30.0)
  end
  begin
     id 13 
     name thorax
     direction -0.00684136 0.995386 0.0957043   
     length 2.07303   
     axis 0 0 0   XYZ
    dof rx ry rz
    limits (-20.0 45.0)
           (-30.0 30.0)
           (-30.0 30.0)
  end
  begin
     id 14 
     name lowerneck
     direction -0.0161045 0.999661 0.0204485   
     length 1.91243   
     axis 0 0 0   XYZ
    dof rx ry rz
    limits (-20.0 45.0)
           (-30.0 30.0)
           (-30.0 30.0)
  end
  begin
     id 15 
     name upperneck
     direction 0.0553583 0.990946 -0.122319   
     length 1.91574   
     axis 0 0 0   XYZ
    dof rx ry rz
    limits (-20.0 45.0)
           (-30.0 30.0)
           (-30.0 30.0)
  end
  begin
     id 16
     name head
     direction 0.0180273 0.998839 -0.0446756  
     length 1.92693  
     axis 0 0 0   XYZ
    dof rx ry rz
    limits (-20.0 45.0)
           (-30.0 30.0)
           (-30.0 30.0)
  end
  begin
     id 17 
     name lclavicle
     direction 0.945646 0.319323 -0.0615358  
     length 4.0076  
     axis 0 0 0   XYZ
    dof ry rz
    limits (-20.0 10.0)
           (0.0 20.0)
  end
  begin
     id 18 
     name lhumerus
     direction 1 -4.48967e-011 -2.79996e-027   
     length 5.64147   
     axis 180 -30 -90   XYZ
    dof rx ry rz
    limits (-60.0 90.0)
           (-90.0 90.0)
           (-90.0 90.0)
  end
  begin
     id 19
     name lradius
     direction 1 -4.48976e-011 -9.5122e-027   
     length 2.86444   
     axis 180 -30 -90   XYZ
    dof rx
    limits (-10.0 170.0)
  end
  begin
     id 20
     name lwrist
     direction 1 -4.48983e-011 -1.24047e-026   
     length 1.43222   
     axis 9.05591e-015 90 90   XYZ
    dof ry
    limits (-180.0 0.0)
 end
  begin
     id 21 
     name lhand
     direction 1 -4.4892e-011 -2.48094e-026   
     length 0.722123   
     axis 1.58305e-014 90 90   XYZ
    dof rx rz
    limits (-90.0 90.0)
           (-45.0 45.0)
  end
  begin
     id 22 
     name lfingers
     direction 1 -4.48895e-011 -4.96187e-026   
     length 0.582194   
     axis 3.1661e-014 90 90   XYZ
    dof rx
    limits (0.0 90.0)
  end
  begin
     id 23
     name lthumb
     direction 0.707107 -6.34961e-011 0.707107   
     length 0.835918   
     axis -90 45 2.85299e-015   XYZ
    dof rx rz
    limits (-45.0 45.0)
           (-45.0 45.0)
  end
  begin
     id 24 
     name rclavicle
     direction -0.932635 0.324218 -0.15835   
     length 3.65819  
     axis 0 0 0   XYZ 
    dof ry rz
    limits (-10.0 20.0)
           (-20.0 0.0)
  end
  begin
     id 25 
     name rhumerus
     direction -1 -4.48965e-011 -4.02296e-027  
     length 5.44729   
     axis 180 30 90   XYZ
    dof rx ry rz
    limits (-90.0 60.0)
           (-90.0 90.0)
           (-90.0 90.0)
  end
  begin
     id 26 
     name rradius
     direction -1 -4.48957e-011 -8.81087e-027   
     length 3.08821   
     axis 180 30 90   XYZ
    dof rx
    limits (-10.0 170.0)
  end
  begin
     id 27 
     name rwrist
     direction -1 -4.49015e-011 -1.24047e-026   
     length 1.5441   
     axis 9.05591e-015 -90 -90   XYZ
    dof ry
    limits (-180.0 0.0)
  end
  begin
     id 28
     name rhand
     direction -1 -4.4891e-011 -2.48094e-026   
     length 0.821049   
     axis 1.58305e-014 -90 -90   XYZ
    dof rx rz
    limits (-90.0 90.0)
           (-45.0 45.0)
  end
  begin
     id 29
     name rfingers
     direction -1 -4.48985e-011 -4.96187e-026   
     length 0.661951   
     axis 3.1661e-014 -90 -90   XYZ
    dof rx
    limits (0.0 90.0)
  end
  begin
     id 30
     name rthumb
     direction -0.707107 -6.34906e-011 0.707107   
     length 0.950433   
     axis -90 -45 -2.85299e-015   XYZ
    dof rx rz
    limits (-45.0 45.0)
           (-45.0 45.0)
  end
:hierarchy
  begin
    root lhipjoint rhipjoint lowerback
    lhipjoint lfemur
    lfemur ltibia
    ltibia lfoot
    lfoot ltoes
    rhipjoint rfemur
    rfemur rtibia
    rtibia rfoot
    rfoot rtoes
    lowerback upperback
    upperback thorax
    thorax lowerneck lclavicle rclavicle
    lowerneck upperneck
    upperneck head
    lclavicle lhumerus
    lhumerus lradius
    lradius lwrist
    lwrist lhand lthumb
    lhand lfingers
    rclavicle rhumerus
    rhumerus rradius
    rradius rwrist
    rwrist rhand rthumb
    rhand rfingers
  end

#!OML:ASF F:\VICON\USERDATA\INSTALL\rory3\rory3.ASF
:FULLY-SPECIFIED
:DEGREES
1877
root 2.7487 18.0348 -0.0275553 -20.3285 84.8146 -25.4717
lowerback 2.14904 -0.789907 2.46074
upperback 3.54561 -0.994993 0.572278
thorax 2.40345 -0.419457 -0.789052
lowerneck -2.20734 -7.77809 -5.3185
upperneck 7.30613 -10.5831 6.38195
head 3.48868 -5.1779 2.61075
rclavicle -6.69656e-015 -1.00386e-014
rhumerus -20.7721 -0.500755 -88.344
rradius 39.2641
rwrist 2.2042
rhand 0.731194 3.79194
rfingers 7.12502
rthumb 26.2905 -24.4063
lclavicle -6.69656e-015 -1.00386e-014
lhumerus -19.2264 -7.19289 91.8854
lradius 32.4574
lwrist 34.2268
lhand -14.6629 7.04926
lfingers 7.12502
lthumb 11.4898 36.7144
rfemur -4.33719 1.34388 21.2728
rtibia 6.86364
rfoot -11.1965 -4.08119
rtoes -12.4354
lfemur -5.34735 1.01467 -17.2745
ltibia 13.659
lfoot -16.3521 10.1331
ltoes -21.6854
1878
root 2.76353 18.0342 -0.0266374 -21.0463 84.8406 -26.1831
lowerback 1.99938 -0.796409 2.5116
upperback 3.46436 -1.00991 0.597852
thorax 2.40286 -0.427751 -0.792803
lowerneck -1.85135 -7.96466 -5.44863
upperneck 6.11445 -10.8243 6.76303
head 3.06445 -5.3133 2.77655
rclavicle 1.27657e-014 7.55382e-015
rhumerus -21.8088 -1.329 -87.9769
rradius 39.7316
rwrist 1.70255
rhand -0.191619 3.92959
rfingers 7.12502
rthumb 25.4068 -24.3974
lclavicle 1.27657e-014 7.55382e-015
lhumerus -20.0264 -6.42128 91.691
lradius 32.3208
lwrist 34.4243
lhand -14.6606 5.93439
lfingers 7.12502
lthumb 11.4921 35.5994
rfemur -4.21753 1.29857 21.3369
rtibia 6.77901
rfoot -11.21 -4.16411
rtoes -12.8875
lfemur -5.28206 1.0402 -17.2205
ltibia 13.6659
lfoot -16.4257 10.0596
ltoes -21.3885
1879
root 2.77711 18.0338 -0.0234869 -21.1278 84.8225 -26.2381
lowerback 1.86052 -0.796999 2.48302
upperback 3.41167 -1.01688 0.631713
thorax 2.42728 -0.433334 -0.74369
lowerneck -1.5531 -8.14387 -5.64749
upperneck 4.96778 -11.0483 7.17514
head 2.68036 -5.44015 2.96593
rclavicle -1.70831e-015 -8.62228e-015
rhumerus -22.7587 -1.91083 -87.6461
rradius 39.9425
rwrist 0.936956
rhand -0.767141 4.22994
rfingers 7.12502
rthumb 24.8554 -24.1743
lclavicle -1.70831e-015 -8.62228e-015
lhumerus -20.7147 -5.85176 91.4736
lradius 32.3502
lwrist 34.9318
lhand -14.8577 6.33399
lfingers 7.12502
lthumb 11.302 36.0095
rfemur -4.09294 1.31462 21.36
rtibia 6.68931
rfoot -11.2027 -4.20306
rtoes -13.0296
lfemur -5.20051 1.04797 -17.2022
ltibia 13.6789
lfoot -16.5128 10.0348
ltoes -21.2419
1880
root 2.79185 18.0326 -0.0202681 -21.6996 84.7872 -26.7996
lowerback 1.69374 -0.791856 2.52803
upperback 3.36184 -1.01692 0.658997
thorax 2.4694 -0.433302 -0.742893
lowerneck -1.25581 -8.33855 -5.88269
upperneck 3.84906 -11.2884 7.61175
head 2.31798 -5.57521 3.17215
rclavicle 3.57191e-015 -7.40473e-015
rhumerus -23.6323 -2.61955 -87.2847
rradius 40.0898
rwrist 0.706796
rhand -1.05127 4.11681
rfingers 7.12502
rthumb 24.5831 -24.3248
lclavicle 3.57191e-015 -7.40473e-015
lhumerus -21.2921 -5.03322 91.1869
lradius 32.1743
lwrist 35.2491
lhand -14.894 6.98576
lfingers 7.12502
lthumb 11.267 36.6632
rfemur -3.96255 1.33142 21.4419
rtibia 6.58109
rfoot -11.2188 -4.23912
rtoes -13.5077
lfemur -5.13389 1.0384 -17.1301
ltibia 13.71
lfoot -16.6295 10.015
ltoes -21.2627
1881
root 2.80414 18.0305 -0.0206123 -21.1481 84.8547 -26.2335
lowerback 1.55177 -0.788673 2.48616
upperback 3.29543 -1.0182 0.635397
thorax 2.4808 -0.436105 -0.745291
lowerneck -0.78521 -8.53345 -6.20013
upperneck 2.62937 -11.5283 8.18207
head 1.91263 -5.71432 3.45245
rclavicle -8.15017e-015 -4.22417e-016
rhumerus -24.4908 -3.3933 -86.8768
rradius 40.1853
rwrist 0.884003
rhand -1.38077 4.01126
rfingers 7.12502
rthumb 24.2672 -24.4729
lclavicle -8.15017e-015 -4.22417e-016
lhumerus -21.7986 -3.71847 90.8238
lradius 31.7054
lwrist 34.8997
lhand -14.7732 7.36611
lfingers 7.12502
lthumb 11.3835 37.0371
rfemur -3.82051 1.28669 21.3643
rtibia 6.43409
rfoot -11.2533 -4.18809
rtoes -12.9521
lfemur -5.10299 1.03789 -17.2127
ltibia 13.7682
lfoot -16.6793 9.96299
ltoes -21.2522
1882
root 2.81375 18.0288 -0.0181237 -21.6079 84.8337 -26.6829
lowerback 1.45225 -0.767106 2.5219
upperback 3.21435 -0.993826 0.66154
thorax 2.45378 -0.42525 -0.739187
lowerneck -0.288908 -8.71151 -6.45213
upperneck 1.45459 -11.7407 8.67067
head 1.50961 -5.84111 3.70128
rclavicle -2.49444e-014 3.65267e-015
rhumerus -25.3459 -4.10628 -86.437
rradius 40.1814
rwrist 1.05393
rhand -1.73239 4.20578
rfingers 7.12502
rthumb 23.93 -24.3231
lclavicle -2.49444e-014 3.65267e-015
lhumerus -22.293 -2.37324 90.4902
lradius 31.1026
lwrist 34.6791
lhand -15.1063 7.52452
lfingers 7.12502
lthumb 11.0622 37.213
rfemur -3.7186 1.29502 21.4414
rtibia 6.33513
rfoot -11.2126 -4.21102
rtoes -12.7543
lfemur -5.07383 0.901459 -17.1573
ltibia 13.8109
lfoot -16.756 10.0674
ltoes -21.155
1883
root 2.82348 18.0281 -0.0133767 -22.8435 84.7556 -27.8503
lowerback 1.39155 -0.750563 2.60911
upperback 3.18095 -0.97483 0.713351
thorax 2.45372 -0.414842 -0.735277
lowerneck 0.0615204 -8.88121 -6.59676
upperneck 0.438636 -11.9368 9.06309
head 1.17165 -5.95568 3.89373
rclavicle -1.54586e-014 1.14053e-014
rhumerus -26.0289 -4.83679 -85.9904
rradius 39.9214
rwrist 1.49999
rhand -2.16738 4.33516
rfingers 7.12502
rthumb 23.5128 -24.2478
lclavicle -1.54586e-014 1.14053e-014
lhumerus -22.6728 -1.48106 90.1619
lradius 30.4932
lwrist 35.1218
lhand -15.6461 8.09331
lfingers 7.12502
lthumb 10.5415 37.809
rfemur -3.55393 1.33119 21.6224
rtibia 6.24502
rfoot -11.1743 -4.28549
rtoes -13.446
lfemur -4.9838 0.888221 -17.005
ltibia 13.8537
lfoot -16.7854 10.1323
ltoes -21.4126
1884
root 2.83507 18.0283 -0.0118893 -22.623 84.7679 -27.595
lowerback 1.27532 -0.754603 2.59264
upperback 3.14054 -0.984836 0.708587
thorax 2.47722 -0.420866 -0.732362
lowerneck 0.265158 -9.03957 -6.72801
upperneck -0.379241 -12.1172 9.39433
head 0.919034 -6.0577 4.05502
rclavicle -1.91206e-014 -3.16813e-015
rhumerus -26.6445 -5.49313 -85.5623
rradius 39.4798
rwrist 2.12507
rhand -2.65541 4.42017
rfingers 7.12502
rthumb 23.0446 -24.222
lclavicle -1.91206e-014 -3.16813e-015
lhumerus -22.999 -0.574384 89.7573
lradius 29.8013
lwrist 35.3879
lhand -15.7694 8.67826
lfingers 7.12502
lthumb 10.4226 38.3999
rfemur -3.42114 1.3285 21.6
rtibia 6.11534
rfoot -11.1509 -4.31207
rtoes -13.344
lfemur -4.92784 0.900594 -17.0413
ltibia 13.9202
lfoot -16.8156 10.1551
ltoes -21.803
1885
root 2.84687 18.0288 -0.0117363 -23.3169 84.7896 -28.2594
lowerback 1.17706 -0.76154 2.6699
upperback 3.07416 -0.998387 0.728287
thorax 2.46282 -0.427432 -0.756389
lowerneck 0.498167 -9.21381 -6.85695
upperneck -1.16713 -12.3187 9.7403
head 0.674788 -6.17094 4.22409
rclavicle -1.94592e-015 3.2551e-015
rhumerus -27.2397 -6.168 -85.0883
rradius 38.8938
rwrist 2.73656
rhand -3.03053 4.55466
rfingers 7.12502
rthumb 22.6847 -24.132
lclavicle -1.94592e-015 3.2551e-015
lhumerus -23.2513 0.577762 89.3023
lradius 28.7042
lwrist 35.0776
lhand -15.5614 8.58468
lfingers 7.12502
lthumb 10.6232 38.2962
rfemur -3.23289 1.2857 21.6607
rtibia 5.93025
rfoot -11.1305 -4.3162
rtoes -12.9732
lfemur -4.88523 0.828424 -16.9888
ltibia 14.0101
lfoot -16.9284 10.1369
ltoes -21.7494
1886
root 2.85735 18.0282 -0.0116442 -24.2251 84.8423 -29.1149
lowerback 1.10097 -0.773742 2.7346
upperback 3.01548 -1.01801 0.743634
thorax 2.44378 -0.437182 -0.777676
lowerneck 0.75186 -9.38938 -6.94523
upperneck -1.92305 -12.5211 10.0598
head 0.433201 -6.28535 4.38011
rclavicle -1.46976e-014 -8.22472e-015
rhumerus -27.7972 -6.62046 -84.6656
rradius 38.2752
rwrist 3.04893
rhand -3.33288 4.48889
rfingers 7.12502
rthumb 22.3945 -24.233
lclavicle -1.46976e-014 -8.22472e-015
lhumerus -23.4542 1.49775 88.8543
lradius 27.4648
lwrist 34.8591
lhand -15.4379 8.14544
lfingers 7.12502
lthumb 10.7424 37.8508
rfemur -3.02591 1.20681 21.7294
rtibia 5.7739
rfoot -11.1113 -4.3363
rtoes -13.057
lfemur -4.81626 0.732618 -16.94
ltibia 14.0702
lfoot -17.0165 10.1336
ltoes -21.5476
1887
root 2.86788 18.0253 -0.0100157 -25.554 84.8739 -30.3617
lowerback 1.04904 -0.799087 2.80835
upperback 2.9537 -1.05438 0.776977
thorax 2.40755 -0.455485 -0.785348
lowerneck 0.985835 -9.55373 -7.0433
upperneck -2.55152 -12.7133 10.3539
head 0.234798 -6.39335 4.52722
rclavicle 1.33636e-015 1.6642e-014
rhumerus -28.2318 -7.51021 -84.1363
rradius 37.3229
rwrist 3.94367
rhand -3.51944 4.85677
rfingers 7.12502
rthumb 22.2154 -23.8866
lclavicle 1.33636e-015 1.6642e-014
lhumerus -23.6425 2.58446 88.3225
lradius 26.1665
lwrist 34.4994
lhand -15.0751 7.73371
lfingers 7.12502
lthumb 11.0923 37.4206
rfemur -2.76524 1.13103 21.8416
rtibia 5.55593
rfoot -11.0852 -4.29551
rtoes -12.4022
lfemur -4.73674 0.680008 -16.84
ltibia 14.159
lfoot -17.1148 10.0917
ltoes -21.2067
1888
root 2.88087 18.0234 -0.0085287 -26.965 84.8873 -31.6939
lowerback 0.961625 -0.824094 2.89473
upperback 2.89466 -1.09208 0.831545
thorax 2.39425 -0.474077 -0.77888
lowerneck 1.26417 -9.70902 -7.12911
upperneck -3.20895 -12.8923 10.5865
head 0.0124169 -6.49614 4.65763
rclavicle -1.48285e-014 -1.99499e-014
rhumerus -28.5288 -8.59772 -83.4932
rradius 36.0641
rwrist 5.19518
rhand -3.50476 5.17974
rfingers 7.12502
rthumb 22.2295 -23.5619
lclavicle -1.48285e-014 -1.99499e-014
lhumerus -23.7906 3.86106 87.7623
lradius 24.795
lwrist 33.9044
lhand -14.6848 7.57415
lfingers 7.12502
lthumb 11.4687 37.2404
rfemur -2.55797 1.06518 21.9574
rtibia 5.46454
rfoot -11.0854 -4.29144
rtoes -12.3024
lfemur -4.61665 0.588407 -16.7313
ltibia 14.186
lfoot -17.2083 10.0868
ltoes -20.9965
